<svg width="29" height="31" viewBox="0 0 29 31" fill="none" xmlns="http://www.w3.org/2000/svg">
<path d="M10.875 26.125C4 28.1875 4 22.6875 1.25 22M20.5 30.25V24.9287C20.5516 24.2731 20.463 23.614 20.2401 22.9952C20.0173 22.3764 19.6653 21.8122 19.2075 21.34C23.525 20.8587 28.0625 19.2225 28.0625 11.715C28.0621 9.79524 27.3237 7.94912 26 6.55873C26.6268 4.87917 26.5825 3.02271 25.8762 1.37498C25.8762 1.37498 24.2538 0.893725 20.5 3.40998C17.3485 2.55586 14.0265 2.55586 10.875 3.40998C7.12125 0.893725 5.49875 1.37498 5.49875 1.37498C4.79252 3.02271 4.7482 4.87917 5.375 6.55873C4.04142 7.95944 3.30222 9.82224 3.3125 11.7562C3.3125 19.2087 7.85 20.845 12.1675 21.3812C11.7151 21.8487 11.3662 22.4062 11.1435 23.0174C10.9209 23.6286 10.8294 24.2798 10.875 24.9287V30.25" stroke="#D9D5E3" stroke-linecap="round" stroke-linejoin="round"/>
</svg>
