<svg width="29" height="28" viewBox="0 0 29 28" fill="none" xmlns="http://www.w3.org/2000/svg">
<path d="M27.8334 20.56V24.56C27.8349 24.9314 27.7589 25.2989 27.6101 25.6392C27.4613 25.9794 27.2431 26.2848 26.9695 26.5358C26.6959 26.7869 26.3728 26.978 26.0211 27.097C25.6693 27.2159 25.2966 27.2601 24.9267 27.2267C20.8239 26.7809 16.8827 25.3789 13.4201 23.1334C10.1985 21.0862 7.46719 18.3549 5.42007 15.1334C3.16671 11.655 1.7644 7.69469 1.32674 3.57336C1.29342 3.20465 1.33724 2.83304 1.45541 2.48219C1.57357 2.13135 1.7635 1.80895 2.01309 1.53552C2.26269 1.2621 2.56648 1.04364 2.90513 0.894057C3.24378 0.744474 3.60986 0.667043 3.98007 0.666694H7.98007C8.62715 0.660326 9.25446 0.889466 9.74509 1.3114C10.2357 1.73334 10.5562 2.31929 10.6467 2.96003C10.8156 4.24012 11.1287 5.497 11.5801 6.70669C11.7595 7.18393 11.7983 7.70258 11.6919 8.2012C11.5856 8.69982 11.3386 9.15751 10.9801 9.52003L9.28674 11.2134C11.1848 14.5514 13.9487 17.3153 17.2867 19.2134L18.9801 17.52C19.3426 17.1615 19.8003 16.9145 20.2989 16.8082C20.7975 16.7018 21.3162 16.7406 21.7934 16.92C23.0031 17.3714 24.26 17.6845 25.5401 17.8534C26.1878 17.9447 26.7793 18.271 27.2021 18.77C27.625 19.2691 27.8496 19.9061 27.8334 20.56Z" stroke="white" stroke-opacity="0.78" stroke-linecap="round" stroke-linejoin="round"/>
</svg>
