<?xml version="1.0" encoding="UTF-8"?>
<svg id="Camada_1" data-name="Camada 1" xmlns="http://www.w3.org/2000/svg" viewBox="0 0 774.41 723.82">
  <defs>
    <style>
      .cls-1 {
        fill: #533dd9;
        stroke-width: 0px;
      }
    </style>
  </defs>
  <path class="cls-1" d="m471.8,359.38c0,50.77-33.88,96.19-80.82,108.44-2.86.72-5.81,1.09-8.77.99-63.44-2.05-122.55,28.73-149.39,84.31-11.9,24.67-17.66,50.55-16.61,76.76.13,3.29.1,6.61-.62,9.84-11.47,48.65-55.45,84.73-107.73,84.08C50.53,723.09,1.26,674.29.03,616.96c-1.1-51.22,33.07-94.66,79.9-107.68,5.49-1.53,11.18-2.11,16.88-1.98,1.24.03,2.48.04,3.72.04,7.07,0,14.03-.47,20.85-1.38,73.01-9.71,129.46-69.76,130.84-142.84.12-.78.16-1.57.12-2.36,0-.17-.01-.32-.02-.47-.02-.96-.01-1.64,0-1.71,0-.6-.34-5.09-1.59-19.02-9.43-64.35-61.87-115.3-128.23-124.62-7.18-1.01-14.51-1.53-21.97-1.53-2.51,0-5,.06-7.48.18C42.19,204.19,3.85,159.06,5.06,105.2,6.37,47.28,54.08.38,112.01,0c47.17-.31,87.38,29.72,102.25,71.72,1.38,3.88,2.53,7.86,3.46,11.92s1.21,7.96,1,11.99c-.13,2.49-.2,5-.2,7.53,0,6.01.37,11.92,1.09,17.74,8.97,72.8,69.31,125.65,149.47,129.22,7.67.34,14.21,2.63,20.93,3.65l8.83,2.53c42.5,14.96,72.96,55.46,72.96,103.08Z"/>
  <path class="cls-1" d="m421.66,676.02c70.29,0,132.12-14.05,185.48-42.17,53.35-28.12,94.57-67.73,123.65-118.86,29.08-51.12,43.62-109.59,43.62-175.42s-14.54-125.09-43.62-175.89c-29.08-50.8-70.13-90.25-123.17-118.38C554.57,17.19,492.59,3.12,356.13,3.12h-85.01s18.06,94.66,18.06,94.66c5.01,26.28,27.99,45.29,54.74,45.29h28.37c127.5,0,149.06,17.25,183.57,51.76s51.76,82.77,51.76,144.74-17.25,109.92-51.76,143.79c-34.51,33.87-82.77,50.8-144.74,50.8h-36.36c-44.01,0-81.87,31.12-90.39,74.3l-13.26,67.2"/>
</svg>